<svg width="600" height="600" viewBox="0 0 32 32" fill="none" xmlns="http://www.w3.org/2000/svg">
<path d="M11.5 2.59808C14.2846 0.990381 17.7154 0.990381 20.5 2.59808L25.3564 5.40192C28.141 7.00962 29.8564 9.98076 29.8564 13.1962V18.8038C29.8564 22.0192 28.141 24.9904 25.3564 26.5981L20.5 29.4019C17.7154 31.0096 14.2846 31.0096 11.5 29.4019L6.64359 26.5981C3.85898 24.9904 2.14359 22.0192 2.14359 18.8038V13.1962C2.14359 9.98076 3.85898 7.00962 6.64359 5.40192L11.5 2.59808Z" fill="#00A3FF"/>
<path d="M17.4265 21.2787C18.3072 21.1519 19.1398 20.8071 19.85 20.2787C20.0497 20.1301 20.0662 19.8435 19.9012 19.657V19.657C19.7362 19.4705 19.4525 19.4551 19.2502 19.6003C18.6738 20.014 18.0045 20.2845 17.298 20.3863C16.4421 20.5095 15.569 20.3797 14.786 20.0128C14.003 19.6459 13.3445 19.058 12.8915 18.3216C12.4385 17.5851 12.2109 16.7322 12.2366 15.8679C12.2624 15.0036 12.5404 14.1658 13.0364 13.4575C13.5324 12.7493 14.2248 12.2017 15.0282 11.8821C15.8316 11.5624 16.711 11.4848 17.5579 11.6588C18.2572 11.8024 18.9092 12.1123 19.4599 12.5596C19.6532 12.7165 19.9374 12.7181 20.1131 12.5417V12.5417C20.2889 12.3654 20.2896 12.0783 20.099 11.918C19.4216 11.3483 18.611 10.9546 17.7393 10.7756C16.72 10.5662 15.6618 10.6596 14.6949 11.0443C13.728 11.4289 12.8948 12.088 12.2979 12.9403C11.7009 13.7926 11.3664 14.8009 11.3354 15.841C11.3044 16.8811 11.5783 17.9076 12.1235 18.7939C12.6686 19.6803 13.4612 20.3878 14.4034 20.8293C15.3457 21.2708 16.3965 21.427 17.4265 21.2787Z" stroke="white" stroke-width="2"/>
</svg>
